<?xml version="1.0" encoding="utf-8"?>
<!-- Generator: Adobe Illustrator 24.1.2, SVG Export Plug-In . SVG Version: 6.00 Build 0)  -->
<svg version="1.1" id="Warstwa_3" xmlns="http://www.w3.org/2000/svg" xmlns:xlink="http://www.w3.org/1999/xlink" x="0px" y="0px"
	 viewBox="0 0 430 430" style="enable-background:new 0 0 430 430;" xml:space="preserve">
<style type="text/css">
	.st0{fill:#08A88A;}
	.st1{fill:#121331;}
	.st2{fill:none;}
	.st3{fill:#08A88A;fill-opacity:0;}
</style>
<g>
	<path class="st1" d="M317.57,394.73H112.43c-19.68,0-35.68-16.01-35.68-35.69V70.95c0-19.68,16.01-35.69,35.68-35.69h205.15
		c19.68,0,35.68,16.01,35.68,35.69v288.09C353.26,378.72,337.25,394.73,317.57,394.73z M112.43,47.87
		c-12.73,0-23.08,10.36-23.08,23.09v288.09c0,12.73,10.36,23.09,23.08,23.09h205.15c12.73,0,23.08-10.36,23.08-23.09V70.95
		c0-12.73-10.36-23.09-23.08-23.09H112.43z M232.43,369.56h-35.1c-9.17,0-16.63-7.46-16.63-16.63v-35.09
		c0-9.17,7.46-16.63,16.63-16.63h35.1c9.17,0,16.63,7.46,16.63,16.63v35.09C249.07,362.1,241.61,369.56,232.43,369.56z
		 M197.34,313.8c-2.22,0-4.03,1.81-4.03,4.03v35.09c0,2.22,1.81,4.03,4.03,4.03h35.1c2.22,0,4.03-1.81,4.03-4.03v-35.09
		c0-2.22-1.81-4.03-4.03-4.03H197.34z M151.64,369.56h-35.1c-9.17,0-16.63-7.46-16.63-16.63v-35.09c0-9.17,7.46-16.63,16.63-16.63
		h35.1c9.17,0,16.63,7.46,16.63,16.63v35.09C168.27,362.1,160.81,369.56,151.64,369.56z M116.55,313.8c-2.22,0-4.03,1.81-4.03,4.03
		v35.09c0,2.22,1.81,4.03,4.03,4.03h35.1c2.22,0,4.03-1.81,4.03-4.03v-35.09c0-2.22-1.81-4.03-4.03-4.03H116.55z M232.34,289.06
		h-35.1c-9.17,0-16.63-7.46-16.63-16.63v-35.09c0-9.17,7.46-16.63,16.63-16.63h35.1c9.17,0,16.63,7.46,16.63,16.63v35.09
		C248.98,281.6,241.51,289.06,232.34,289.06z M197.25,233.3c-2.22,0-4.03,1.81-4.03,4.03v35.09c0,2.22,1.81,4.03,4.03,4.03h35.1
		c2.22,0,4.03-1.81,4.03-4.03v-35.09c0-2.22-1.81-4.03-4.03-4.03H197.25z M151.55,289.06h-35.09c-9.17,0-16.63-7.46-16.63-16.63
		v-35.09c0-9.17,7.46-16.63,16.63-16.63h35.09c9.17,0,16.63,7.46,16.63,16.63v35.09C168.18,281.6,160.72,289.06,151.55,289.06z
		 M116.45,233.3c-2.22,0-4.03,1.81-4.03,4.03v35.09c0,2.22,1.81,4.03,4.03,4.03h35.09c2.22,0,4.03-1.81,4.03-4.03v-35.09
		c0-2.22-1.81-4.03-4.03-4.03H116.45z M313.34,209.06h-35.09c-9.17,0-16.63-7.46-16.63-16.63v-35.09c0-9.17,7.46-16.63,16.63-16.63
		h35.09c9.17,0,16.63,7.46,16.63,16.63v35.09C329.97,201.6,322.51,209.06,313.34,209.06z M278.25,153.3c-2.22,0-4.03,1.81-4.03,4.03
		v35.09c0,2.22,1.81,4.03,4.03,4.03h35.09c2.22,0,4.03-1.81,4.03-4.03v-35.09c0-2.22-1.81-4.03-4.03-4.03H278.25z M232.55,209.06
		h-35.09c-9.17,0-16.63-7.46-16.63-16.63v-35.09c0-9.17,7.46-16.63,16.63-16.63h35.09c9.17,0,16.63,7.46,16.63,16.63v35.09
		C249.18,201.6,241.72,209.06,232.55,209.06z M197.45,153.3c-2.22,0-4.03,1.81-4.03,4.03v35.09c0,2.22,1.81,4.03,4.03,4.03h35.09
		c2.22,0,4.03-1.81,4.03-4.03v-35.09c0-2.22-1.81-4.03-4.03-4.03H197.45z M151.75,209.06h-35.09c-9.17,0-16.63-7.46-16.63-16.63
		v-35.09c0-9.17,7.46-16.63,16.63-16.63h35.09c9.17,0,16.63,7.46,16.63,16.63v35.09C168.39,201.6,160.93,209.06,151.75,209.06z
		 M116.66,153.3c-2.22,0-4.03,1.81-4.03,4.03v35.09c0,2.22,1.81,4.03,4.03,4.03h35.09c2.22,0,4.03-1.81,4.03-4.03v-35.09
		c0-2.22-1.81-4.03-4.03-4.03H116.66z"/>
	<path class="st0" d="M313.33,369.03h-35.1c-9.17,0-16.63-7.46-16.63-16.63l-0.22-115.08c0-9.18,7.46-16.64,16.63-16.64h35.09
		c9.17,0,16.63,7.46,16.63,16.63l0.22,115.08C329.96,361.57,322.5,369.03,313.33,369.03z M278.01,233.27
		c-2.22,0-4.03,1.81-4.03,4.03l0.22,115.08c0,2.24,1.81,4.04,4.03,4.04h35.1c2.22,0,4.03-1.81,4.03-4.03l-0.22-115.08
		c0-2.24-1.81-4.04-4.03-4.04H278.01z M304.82,129.17H125.18c-13.87,0-25.15-11.28-25.15-25.15V85.96
		c0-13.87,11.28-25.15,25.15-25.15h179.64c13.87,0,25.15,11.28,25.15,25.15v18.06C329.97,117.88,318.69,129.17,304.82,129.17z
		 M125.18,73.41c-6.92,0-12.55,5.63-12.55,12.55v18.06c0,6.92,5.63,12.55,12.55,12.55h179.64c6.92,0,12.55-5.63,12.55-12.55V85.96
		c0-6.92-5.63-12.55-12.55-12.55H125.18z"/>
	<path class="st2" d="M288.71,89.26c-3.18,0-5.75,2.57-5.75,5.75s2.57,5.75,5.75,5.75s5.75-2.57,5.75-5.75
		S291.88,89.26,288.71,89.26z"/>
	<path class="st0" d="M288.71,107.06c-6.64,0-12.05-5.41-12.05-12.05s5.41-12.05,12.05-12.05s12.05,5.41,12.05,12.05
		S295.35,107.06,288.71,107.06z M288.71,94.46c-0.3,0-0.55,0.25-0.55,0.55s0.25,0.55,0.55,0.55s0.55-0.25,0.55-0.55
		S289.01,94.46,288.71,94.46z"/>
	<path class="st2" d="M254.21,89.26c-3.18,0-5.75,2.57-5.75,5.75s2.57,5.75,5.75,5.75s5.75-2.57,5.75-5.75
		S257.38,89.26,254.21,89.26z"/>
	<path class="st0" d="M254.21,107.06c-6.64,0-12.05-5.41-12.05-12.05s5.41-12.05,12.05-12.05s12.05,5.41,12.05,12.05
		S260.85,107.06,254.21,107.06z M254.21,94.46c-0.3,0-0.55,0.25-0.55,0.55s0.25,0.55,0.55,0.55s0.55-0.25,0.55-0.55
		S254.51,94.46,254.21,94.46z"/>
	<path class="st2" d="M219.21,89.26c-3.18,0-5.75,2.57-5.75,5.75s2.57,5.75,5.75,5.75c3.18,0,5.75-2.57,5.75-5.75
		S222.38,89.26,219.21,89.26z"/>
	<path class="st0" d="M219.21,107.06c-6.64,0-12.05-5.41-12.05-12.05s5.41-12.05,12.05-12.05s12.05,5.41,12.05,12.05
		S225.85,107.06,219.21,107.06z M219.21,94.46c-0.3,0-0.55,0.25-0.55,0.55s0.25,0.55,0.55,0.55s0.55-0.25,0.55-0.55
		S219.51,94.46,219.21,94.46z"/>
</g>
</svg>
